<mxfile host="app.diagrams.net" modified="2022-09-20T23:49:05.667Z" agent="5.0 (Windows NT 10.0; Win64; x64) AppleWebKit/537.36 (KHTML, like Gecko) Chrome/105.0.0.0 Safari/537.36" etag="z646rHBQXVMII6ha8PwF" version="20.3.3" type="github">
  <diagram id="qZjGWT7eAxn2Ho_F9q5K" name="Page-1">
    <mxGraphModel dx="1662" dy="762" grid="1" gridSize="10" guides="1" tooltips="1" connect="1" arrows="1" fold="1" page="1" pageScale="1" pageWidth="850" pageHeight="1100" math="0" shadow="0">
      <root>
        <mxCell id="0" />
        <mxCell id="1" parent="0" />
        <mxCell id="3DazkvmzbHlYvWQNqpE1-9" style="edgeStyle=orthogonalEdgeStyle;rounded=0;orthogonalLoop=1;jettySize=auto;html=1;exitX=1;exitY=0.5;exitDx=0;exitDy=0;entryX=0;entryY=0.5;entryDx=0;entryDy=0;" edge="1" parent="1" source="3DazkvmzbHlYvWQNqpE1-1" target="3DazkvmzbHlYvWQNqpE1-3">
          <mxGeometry relative="1" as="geometry" />
        </mxCell>
        <mxCell id="3DazkvmzbHlYvWQNqpE1-18" style="edgeStyle=orthogonalEdgeStyle;rounded=0;orthogonalLoop=1;jettySize=auto;html=1;exitX=0.5;exitY=0;exitDx=0;exitDy=0;entryX=0;entryY=0.5;entryDx=0;entryDy=0;" edge="1" parent="1" source="3DazkvmzbHlYvWQNqpE1-1" target="3DazkvmzbHlYvWQNqpE1-13">
          <mxGeometry relative="1" as="geometry" />
        </mxCell>
        <mxCell id="3DazkvmzbHlYvWQNqpE1-29" style="edgeStyle=orthogonalEdgeStyle;rounded=0;orthogonalLoop=1;jettySize=auto;html=1;exitX=0.25;exitY=1;exitDx=0;exitDy=0;entryX=0;entryY=0.5;entryDx=0;entryDy=0;" edge="1" parent="1" source="3DazkvmzbHlYvWQNqpE1-1" target="3DazkvmzbHlYvWQNqpE1-17">
          <mxGeometry relative="1" as="geometry" />
        </mxCell>
        <mxCell id="3DazkvmzbHlYvWQNqpE1-1" value="V1.0" style="rounded=0;whiteSpace=wrap;html=1;" vertex="1" parent="1">
          <mxGeometry x="160" y="280" width="80" height="40" as="geometry" />
        </mxCell>
        <mxCell id="3DazkvmzbHlYvWQNqpE1-10" style="edgeStyle=orthogonalEdgeStyle;rounded=0;orthogonalLoop=1;jettySize=auto;html=1;exitX=1;exitY=0.5;exitDx=0;exitDy=0;entryX=0;entryY=0.5;entryDx=0;entryDy=0;" edge="1" parent="1" source="3DazkvmzbHlYvWQNqpE1-3" target="3DazkvmzbHlYvWQNqpE1-5">
          <mxGeometry relative="1" as="geometry" />
        </mxCell>
        <mxCell id="3DazkvmzbHlYvWQNqpE1-28" style="edgeStyle=orthogonalEdgeStyle;rounded=0;orthogonalLoop=1;jettySize=auto;html=1;exitX=0.75;exitY=1;exitDx=0;exitDy=0;entryX=0;entryY=0.5;entryDx=0;entryDy=0;" edge="1" parent="1" source="3DazkvmzbHlYvWQNqpE1-3" target="3DazkvmzbHlYvWQNqpE1-23">
          <mxGeometry relative="1" as="geometry" />
        </mxCell>
        <mxCell id="3DazkvmzbHlYvWQNqpE1-3" value="V 1.1" style="rounded=0;whiteSpace=wrap;html=1;" vertex="1" parent="1">
          <mxGeometry x="280" y="280" width="80" height="40" as="geometry" />
        </mxCell>
        <mxCell id="3DazkvmzbHlYvWQNqpE1-11" style="edgeStyle=orthogonalEdgeStyle;rounded=0;orthogonalLoop=1;jettySize=auto;html=1;exitX=1;exitY=0.5;exitDx=0;exitDy=0;entryX=0;entryY=0.5;entryDx=0;entryDy=0;" edge="1" parent="1" source="3DazkvmzbHlYvWQNqpE1-5" target="3DazkvmzbHlYvWQNqpE1-7">
          <mxGeometry relative="1" as="geometry" />
        </mxCell>
        <mxCell id="3DazkvmzbHlYvWQNqpE1-5" value="V 1.2" style="rounded=0;whiteSpace=wrap;html=1;" vertex="1" parent="1">
          <mxGeometry x="400" y="280" width="80" height="40" as="geometry" />
        </mxCell>
        <mxCell id="3DazkvmzbHlYvWQNqpE1-12" style="edgeStyle=orthogonalEdgeStyle;rounded=0;orthogonalLoop=1;jettySize=auto;html=1;exitX=1;exitY=0.5;exitDx=0;exitDy=0;entryX=0;entryY=0.5;entryDx=0;entryDy=0;" edge="1" parent="1" source="3DazkvmzbHlYvWQNqpE1-7" target="3DazkvmzbHlYvWQNqpE1-8">
          <mxGeometry relative="1" as="geometry" />
        </mxCell>
        <mxCell id="3DazkvmzbHlYvWQNqpE1-7" value="V 1.3" style="rounded=0;whiteSpace=wrap;html=1;" vertex="1" parent="1">
          <mxGeometry x="520" y="280" width="80" height="40" as="geometry" />
        </mxCell>
        <mxCell id="3DazkvmzbHlYvWQNqpE1-8" value="V 1.4" style="rounded=0;whiteSpace=wrap;html=1;" vertex="1" parent="1">
          <mxGeometry x="640" y="280" width="80" height="40" as="geometry" />
        </mxCell>
        <mxCell id="3DazkvmzbHlYvWQNqpE1-26" style="edgeStyle=orthogonalEdgeStyle;rounded=0;orthogonalLoop=1;jettySize=auto;html=1;exitX=0.5;exitY=1;exitDx=0;exitDy=0;entryX=0.5;entryY=0;entryDx=0;entryDy=0;" edge="1" parent="1" source="3DazkvmzbHlYvWQNqpE1-13" target="3DazkvmzbHlYvWQNqpE1-7">
          <mxGeometry relative="1" as="geometry" />
        </mxCell>
        <mxCell id="3DazkvmzbHlYvWQNqpE1-13" value="Branch: Backend&lt;br&gt;Contributor: S Rico" style="rounded=0;whiteSpace=wrap;html=1;" vertex="1" parent="1">
          <mxGeometry x="440" y="200" width="120" height="40" as="geometry" />
        </mxCell>
        <mxCell id="3DazkvmzbHlYvWQNqpE1-15" value="Branch: main&lt;br&gt;Contributor: All" style="text;html=1;strokeColor=none;fillColor=none;align=center;verticalAlign=middle;whiteSpace=wrap;rounded=0;" vertex="1" parent="1">
          <mxGeometry x="40" y="280" width="120" height="40" as="geometry" />
        </mxCell>
        <mxCell id="3DazkvmzbHlYvWQNqpE1-21" style="edgeStyle=orthogonalEdgeStyle;rounded=0;orthogonalLoop=1;jettySize=auto;html=1;exitX=0.5;exitY=0;exitDx=0;exitDy=0;entryX=0.5;entryY=1;entryDx=0;entryDy=0;" edge="1" parent="1" source="3DazkvmzbHlYvWQNqpE1-17" target="3DazkvmzbHlYvWQNqpE1-3">
          <mxGeometry relative="1" as="geometry" />
        </mxCell>
        <mxCell id="3DazkvmzbHlYvWQNqpE1-17" value="Branch: Website&lt;br&gt;Contributor: J Nong" style="rounded=0;whiteSpace=wrap;html=1;" vertex="1" parent="1">
          <mxGeometry x="200" y="360" width="120" height="40" as="geometry" />
        </mxCell>
        <mxCell id="3DazkvmzbHlYvWQNqpE1-25" style="edgeStyle=orthogonalEdgeStyle;rounded=0;orthogonalLoop=1;jettySize=auto;html=1;exitX=0.5;exitY=0;exitDx=0;exitDy=0;entryX=0.5;entryY=1;entryDx=0;entryDy=0;" edge="1" parent="1" source="3DazkvmzbHlYvWQNqpE1-23" target="3DazkvmzbHlYvWQNqpE1-5">
          <mxGeometry relative="1" as="geometry" />
        </mxCell>
        <mxCell id="3DazkvmzbHlYvWQNqpE1-23" value="Branch: Web search&lt;br&gt;Contributor: J Villasis" style="rounded=0;whiteSpace=wrap;html=1;" vertex="1" parent="1">
          <mxGeometry x="400" y="440" width="120" height="40" as="geometry" />
        </mxCell>
      </root>
    </mxGraphModel>
  </diagram>
</mxfile>
